HIERARCHY
ROOT Hips
{
	OFFSET 0.000000 0.000000 0.000000
	CHANNELS 6 Xposition Yposition Zposition Xrotation Yrotation Zrotation
	JOINT LeftUpLeg_virtual
	{
		OFFSET 0.000000 0.000000 0.000000
		CHANNELS 3 Xrotation Yrotation Zrotation
		JOINT LeftUpLeg
		{
			OFFSET 10.205400 -3.823500 0.155100
			CHANNELS 3 Xrotation Yrotation Zrotation
			JOINT LeftLeg
			{
				OFFSET 0.708757 -12.982077 0.567790
				CHANNELS 3 Xrotation Yrotation Zrotation
				JOINT LeftFoot
				{
					OFFSET -0.708756 -10.717838 -2.184338
					CHANNELS 3 Xrotation Yrotation Zrotation
					JOINT LeftToeBase
					{
						OFFSET 0.108149 -7.191104 7.560241
						CHANNELS 3 Xrotation Yrotation Zrotation
						JOINT LeftToe_End
						{
							OFFSET 0.070230 0.081724 4.490308
							CHANNELS 3 Xrotation Yrotation Zrotation
							End Site
							{
								OFFSET 0 0 0
							}
						}
					}
				}
			}
		}
	}
	JOINT RightUpLeg_virtual
	{
		OFFSET 0.000000 0.000000 0.000000
		CHANNELS 3 Xrotation Yrotation Zrotation
		JOINT RightUpLeg
		{
			OFFSET -10.205400 -3.823500 0.005500
			CHANNELS 3 Xrotation Yrotation Zrotation
			JOINT RightLeg
			{
				OFFSET -0.708756 -12.982134 0.610632
				CHANNELS 3 Xrotation Yrotation Zrotation
				JOINT RightFoot
				{
					OFFSET 0.708754 -10.717769 -1.945823
					CHANNELS 3 Xrotation Yrotation Zrotation
					JOINT RightToeBase
					{
						OFFSET -0.108140 -7.191069 7.372968
						CHANNELS 3 Xrotation Yrotation Zrotation
						JOINT RightToe_End
						{
							OFFSET -0.070227 0.081735 4.479403
							CHANNELS 3 Xrotation Yrotation Zrotation
							End Site
							{
								OFFSET 0 0 0
							}
						}
					}
				}
			}
		}
	}
	JOINT Spine_virtual
	{
		OFFSET 0.000000 0.000000 0.000000
		CHANNELS 3 Xrotation Yrotation Zrotation
		JOINT Spine
		{
			OFFSET 0.000000 6.876099 0.125700
			CHANNELS 3 Xrotation Yrotation Zrotation
			JOINT Spine1
			{
				OFFSET 0.000000 5.730043 0.104720
				CHANNELS 3 Xrotation Yrotation Zrotation
				JOINT Spine1_split
				{
					OFFSET 0.000000 5.730043 0.104720
					CHANNELS 3 Xrotation Yrotation Zrotation
					JOINT Spine2
					{
						OFFSET 0.000000 5.730043 0.104720
						CHANNELS 3 Xrotation Yrotation Zrotation
						JOINT Neck_virtual
						{
							OFFSET 0.000000 0.000000 0.000000
							CHANNELS 3 Xrotation Yrotation Zrotation
							JOINT Neck
							{
								OFFSET 0.000000 10.314075 0.188496
								CHANNELS 3 Xrotation Yrotation Zrotation
								JOINT Head
								{
									OFFSET 0.000000 7.643700 -2.377400
									CHANNELS 3 Xrotation Yrotation Zrotation
									JOINT HeadTop_End
									{
										OFFSET 0.000000 43.788605 -13.619600
										CHANNELS 3 Xrotation Yrotation Zrotation
										End Site
										{
											OFFSET 0 0 0
										}
									}
								}
							}
						}
						JOINT LeftShoulder_virtual
						{
							OFFSET 0.000000 0.000000 0.000000
							CHANNELS 3 Xrotation Yrotation Zrotation
							JOINT LeftShoulder
							{
								OFFSET 2.196100 4.412489 0.087492
								CHANNELS 3 Xrotation Yrotation Zrotation
								JOINT LeftShoulder_split
								{
									OFFSET 2.196100 4.412489 0.087492
									CHANNELS 3 Xrotation Yrotation Zrotation
									JOINT LeftArm
									{
										OFFSET 8.771219 -2.981674 -0.026999
										CHANNELS 3 Xrotation Yrotation Zrotation
										JOINT LeftForeArm
										{
											OFFSET 8.512804 0.000000 -0.000000
											CHANNELS 3 Xrotation Yrotation Zrotation
											JOINT LeftHand
											{
												OFFSET 18.484802 0.000000 -0.000000
												CHANNELS 3 Xrotation Yrotation Zrotation
												End Site
												{
													OFFSET 0 0 0
												}
											}
										}
									}
								}
							}
						}
						JOINT RightShoulder_virtual
						{
							OFFSET 0.000000 0.000000 0.000000
							CHANNELS 3 Xrotation Yrotation Zrotation
							JOINT RightShoulder
							{
								OFFSET -2.196100 4.412496 0.070690
								CHANNELS 3 Xrotation Yrotation Zrotation
								JOINT RightShoulder_split
								{
									OFFSET -2.196100 4.412496 0.070690
									CHANNELS 3 Xrotation Yrotation Zrotation
									JOINT RightArm
									{
										OFFSET -8.771282 -2.981682 -0.094208
										CHANNELS 3 Xrotation Yrotation Zrotation
										JOINT RightForeArm
										{
											OFFSET -8.494598 0.000000 0.000000
											CHANNELS 3 Xrotation Yrotation Zrotation
											JOINT RightHand
											{
												OFFSET -18.483803 0.000000 0.000001
												CHANNELS 3 Xrotation Yrotation Zrotation
												End Site
												{
													OFFSET 0 0 0
												}
											}
										}
									}
								}
							}
						}
					}
				}
			}
		}
	}
}
MOTION
Frames: 4
Frame Time: 0.03333333
84.836433 13.690798 -16.492716 0.000000 0.000000 0.000000 -125.500177 -25.709658 50.712047 -44.572636 13.897443 -7.233508 117.273419 -2.260450 -3.269349 -38.338238 -1.648239 -3.304789 2.062849 1.449607 -1.075909 0.000000 0.000000 0.000000 -125.500177 -25.709658 50.712047 -108.674949 -13.316491 7.721690 91.239245 -5.415502 1.066313 -10.877343 3.065371 11.294542 -0.012211 -0.109727 0.262111 0.000000 0.000000 0.000000 -125.500177 -25.709658 50.712047 12.091248 3.096587 1.811492 24.200982 5.707160 2.256768 0.000000 0.000000 0.000000 0.000000 0.000000 0.000000 24.200984 5.707166 2.256775 56.768120 -4.709007 -18.365632 -27.541973 -9.260008 20.113299 0.000000 0.000000 0.000000 24.200984 5.707166 2.256775 0.826491 4.176657 27.061218 0.000000 0.000000 0.000000 -21.500739 -16.600696 -7.566952 -179.751468 -71.255238 -179.765934 0.000000 0.000000 0.000000 24.200984 5.707166 2.256775 2.759741 8.250651 -10.588884 0.000000 0.000000 0.000000 -57.649044 -5.834117 42.145368 -179.941457 60.236627 179.933520 0.000000 0.000000 0.000000 
88.583221 11.157639 -16.418745 0.000000 0.000000 0.000000 -124.801162 -14.818715 59.798491 -41.323157 13.441636 -8.706551 116.003427 1.352153 -2.687053 -31.304704 -3.410779 -6.977631 3.049614 1.003072 -0.719886 0.000000 0.000000 0.000000 -124.801162 -14.818715 59.798491 -96.968728 -16.976813 9.683344 93.473707 -6.841819 0.681205 -18.224400 2.371360 7.338727 -0.012197 -0.109708 0.262108 0.000000 0.000000 0.000000 -124.801162 -14.818715 59.798491 12.021042 3.374892 2.689983 24.076777 6.263980 3.298516 0.000000 0.000000 0.000000 0.000000 0.000000 0.000000 24.076781 6.263981 3.298504 58.211844 -3.060422 -17.835296 -23.111414 -7.490901 22.712631 0.000000 0.000000 0.000000 24.076781 6.263981 3.298504 1.106685 2.229520 21.865794 0.000000 0.000000 0.000000 -8.044704 -21.912748 0.331388 -179.495705 -79.484455 -179.516264 0.000000 0.000000 0.000000 24.076781 6.263981 3.298504 3.006498 6.979983 -13.209484 0.000000 0.000000 0.000000 -24.883250 -9.196752 51.059332 -179.855738 71.346517 179.867595 0.000000 0.000000 0.000000 
91.208855 8.851624 -16.797491 0.000000 0.000000 0.000000 -126.359797 -2.507187 70.399135 -43.877658 17.418890 -11.562808 115.511599 7.100636 -1.539822 -20.888037 0.527918 -3.140437 -2.941623 -0.775916 0.547664 0.000000 0.000000 0.000000 -126.359797 -2.507187 70.399135 -86.426188 -14.397532 8.298869 91.480152 -6.207400 0.871365 -24.059507 2.637738 5.549305 -0.012193 -0.109737 0.262127 0.000000 0.000000 0.000000 -126.359797 -2.507187 70.399135 11.594169 3.166989 2.880106 23.202417 6.009134 3.780233 0.000000 0.000000 0.000000 0.000000 0.000000 0.000000 23.202426 6.009111 3.780214 59.079757 -1.919152 -15.677921 -22.416066 -6.248909 21.959688 0.000000 0.000000 0.000000 23.202426 6.009111 3.780214 1.507308 -0.163525 17.453331 0.000000 0.000000 0.000000 3.550716 -20.408013 2.406272 -179.445967 -82.283979 -179.474436 0.000000 0.000000 0.000000 23.202426 6.009111 3.780214 0.825808 6.417773 -5.156938 0.000000 0.000000 0.000000 -13.761714 2.862438 43.332438 -0.079303 78.665058 0.117652 0.000000 0.000000 0.000000 
93.190033 8.076485 -17.315390 0.000000 0.000000 0.000000 -129.960878 9.895858 82.527448 -49.521925 39.624922 -20.537595 105.902725 23.767298 0.500174 -0.536693 7.325117 27.074709 -3.864936 -1.356055 0.936683 0.000000 0.000000 0.000000 -129.960878 9.895858 82.527448 -79.497910 -9.420011 6.269219 88.199954 -5.233655 1.221739 -26.893481 3.713451 5.217646 -0.012192 -0.109707 0.262099 0.000000 0.000000 0.000000 -129.960878 9.895858 82.527448 11.028657 2.869706 2.098434 22.027369 5.656533 3.235584 0.000000 0.000000 0.000000 0.000000 0.000000 0.000000 22.027360 5.656556 3.235587 60.269992 -2.313315 -14.397226 -27.160797 -7.796236 21.836214 0.000000 0.000000 0.000000 22.027360 5.656556 3.235587 1.710708 -2.274076 13.636410 0.000000 0.000000 0.000000 15.758968 -23.274105 -5.022793 -3.298675 -89.562099 -3.331334 0.000000 0.000000 0.000000 22.027360 5.656556 3.235587 -1.165710 6.257480 1.833348 0.000000 0.000000 0.000000 -5.033706 6.051730 32.557746 0.007188 66.069438 0.018600 0.000000 0.000000 0.000000 
